<mxfile host="app.diagrams.net" modified="2023-06-16T07:32:15.621Z" agent="Mozilla/5.0 (Windows NT 10.0; Win64; x64) AppleWebKit/537.36 (KHTML, like Gecko) Chrome/114.0.0.0 Safari/537.36" etag="gYDDEB1LuGg7dATVbIhP" version="21.3.8" type="github">
  <diagram name="第 1 页" id="foT0SCBSdI3_RRnVFeLk">
    <mxGraphModel dx="1902" dy="673" grid="0" gridSize="10" guides="1" tooltips="1" connect="1" arrows="1" fold="1" page="0" pageScale="1" pageWidth="827" pageHeight="1169" math="0" shadow="0">
      <root>
        <mxCell id="0" />
        <mxCell id="1" parent="0" />
        <mxCell id="4TGvPuajLl9bLqOAQWgt-1" value="&lt;b&gt;&lt;font style=&quot;font-size: 14px;&quot;&gt;sbrk系统调用做了什么？（申请用户空间发生了什么？）&lt;br&gt;&lt;/font&gt;&lt;/b&gt;" style="text;strokeColor=none;fillColor=none;html=1;align=center;verticalAlign=middle;whiteSpace=wrap;rounded=0;" vertex="1" parent="1">
          <mxGeometry x="-357" y="277" width="401" height="50" as="geometry" />
        </mxCell>
        <mxCell id="4TGvPuajLl9bLqOAQWgt-3" value="1. 分配物理页&lt;br style=&quot;font-size: 14px;&quot;&gt;2. 建立进程的虚拟页和物理页的映射" style="text;strokeColor=none;fillColor=none;html=1;align=center;verticalAlign=middle;whiteSpace=wrap;rounded=0;fontSize=14;fontFamily=Helvetica;fontColor=default;" vertex="1" parent="1">
          <mxGeometry x="-268" y="343" width="262" height="23" as="geometry" />
        </mxCell>
        <mxCell id="4TGvPuajLl9bLqOAQWgt-4" value="用alloc申请用户空间发生了什么" style="text;strokeColor=none;fillColor=none;html=1;align=center;verticalAlign=middle;whiteSpace=wrap;rounded=0;fontSize=14;fontFamily=Helvetica;fontColor=default;fontStyle=1" vertex="1" parent="1">
          <mxGeometry x="-337" y="432" width="202" height="25" as="geometry" />
        </mxCell>
        <mxCell id="4TGvPuajLl9bLqOAQWgt-5" value="1. 查找可用内存（首次适应算法）&lt;br&gt;2. 创建一个vma描述这段内存，vma插入vma链表中&lt;br&gt;3. 为这段内存分配物理页并建立映射" style="text;strokeColor=none;fillColor=none;html=1;align=center;verticalAlign=middle;whiteSpace=wrap;rounded=0;fontSize=14;fontFamily=Helvetica;fontColor=default;" vertex="1" parent="1">
          <mxGeometry x="-353" y="484" width="331" height="39" as="geometry" />
        </mxCell>
        <mxCell id="4TGvPuajLl9bLqOAQWgt-77" value="" style="shape=table;startSize=0;container=1;collapsible=0;childLayout=tableLayout;fontSize=16;rounded=0;fontFamily=Helvetica;fontColor=default;fillColor=none;gradientColor=none;html=1;" vertex="1" parent="1">
          <mxGeometry x="166" y="490" width="60" height="386.9500427246094" as="geometry" />
        </mxCell>
        <mxCell id="4TGvPuajLl9bLqOAQWgt-143" style="shape=tableRow;horizontal=0;startSize=0;swimlaneHead=0;swimlaneBody=0;strokeColor=inherit;top=0;left=0;bottom=0;right=0;collapsible=0;dropTarget=0;fillColor=none;points=[[0,0.5],[1,0.5]];portConstraint=eastwest;fontSize=16;rounded=0;fontFamily=Helvetica;fontColor=default;html=1;" vertex="1" parent="4TGvPuajLl9bLqOAQWgt-77">
          <mxGeometry width="60" height="40" as="geometry" />
        </mxCell>
        <mxCell id="4TGvPuajLl9bLqOAQWgt-144" style="shape=partialRectangle;html=1;whiteSpace=wrap;connectable=0;overflow=hidden;top=0;left=0;bottom=0;right=0;pointerEvents=1;fontSize=16;rounded=0;fontFamily=Helvetica;fillColor=#f5f5f5;fontColor=#333333;strokeColor=#666666;" vertex="1" parent="4TGvPuajLl9bLqOAQWgt-143">
          <mxGeometry width="60" height="40" as="geometry">
            <mxRectangle width="60" height="40" as="alternateBounds" />
          </mxGeometry>
        </mxCell>
        <mxCell id="4TGvPuajLl9bLqOAQWgt-141" style="shape=tableRow;horizontal=0;startSize=0;swimlaneHead=0;swimlaneBody=0;strokeColor=inherit;top=0;left=0;bottom=0;right=0;collapsible=0;dropTarget=0;fillColor=none;points=[[0,0.5],[1,0.5]];portConstraint=eastwest;fontSize=16;rounded=0;fontFamily=Helvetica;fontColor=default;html=1;" vertex="1" parent="4TGvPuajLl9bLqOAQWgt-77">
          <mxGeometry y="40" width="60" height="40" as="geometry" />
        </mxCell>
        <mxCell id="4TGvPuajLl9bLqOAQWgt-142" style="shape=partialRectangle;html=1;whiteSpace=wrap;connectable=0;overflow=hidden;top=0;left=0;bottom=0;right=0;pointerEvents=1;fontSize=16;rounded=0;fontFamily=Helvetica;fillColor=#f5f5f5;fontColor=#333333;strokeColor=#666666;" vertex="1" parent="4TGvPuajLl9bLqOAQWgt-141">
          <mxGeometry width="60" height="40" as="geometry">
            <mxRectangle width="60" height="40" as="alternateBounds" />
          </mxGeometry>
        </mxCell>
        <mxCell id="4TGvPuajLl9bLqOAQWgt-139" style="shape=tableRow;horizontal=0;startSize=0;swimlaneHead=0;swimlaneBody=0;strokeColor=inherit;top=0;left=0;bottom=0;right=0;collapsible=0;dropTarget=0;fillColor=none;points=[[0,0.5],[1,0.5]];portConstraint=eastwest;fontSize=16;rounded=0;fontFamily=Helvetica;fontColor=default;html=1;" vertex="1" parent="4TGvPuajLl9bLqOAQWgt-77">
          <mxGeometry y="80" width="60" height="40" as="geometry" />
        </mxCell>
        <mxCell id="4TGvPuajLl9bLqOAQWgt-140" style="shape=partialRectangle;html=1;whiteSpace=wrap;connectable=0;overflow=hidden;top=0;left=0;bottom=0;right=0;pointerEvents=1;fontSize=16;rounded=0;fontFamily=Helvetica;fillColor=#f5f5f5;fontColor=#333333;strokeColor=#666666;" vertex="1" parent="4TGvPuajLl9bLqOAQWgt-139">
          <mxGeometry width="60" height="40" as="geometry">
            <mxRectangle width="60" height="40" as="alternateBounds" />
          </mxGeometry>
        </mxCell>
        <mxCell id="4TGvPuajLl9bLqOAQWgt-105" style="shape=tableRow;horizontal=0;startSize=0;swimlaneHead=0;swimlaneBody=0;strokeColor=inherit;top=0;left=0;bottom=0;right=0;collapsible=0;dropTarget=0;fillColor=none;points=[[0,0.5],[1,0.5]];portConstraint=eastwest;fontSize=16;rounded=0;fontFamily=Helvetica;fontColor=default;html=1;" vertex="1" parent="4TGvPuajLl9bLqOAQWgt-77">
          <mxGeometry y="120" width="60" height="40" as="geometry" />
        </mxCell>
        <mxCell id="4TGvPuajLl9bLqOAQWgt-106" style="shape=partialRectangle;html=1;whiteSpace=wrap;connectable=0;strokeColor=#006EAF;overflow=hidden;fillColor=#1ba1e2;top=0;left=0;bottom=0;right=0;pointerEvents=1;fontSize=16;rounded=0;fontFamily=Helvetica;fontColor=#ffffff;" vertex="1" parent="4TGvPuajLl9bLqOAQWgt-105">
          <mxGeometry width="60" height="40" as="geometry">
            <mxRectangle width="60" height="40" as="alternateBounds" />
          </mxGeometry>
        </mxCell>
        <mxCell id="4TGvPuajLl9bLqOAQWgt-103" style="shape=tableRow;horizontal=0;startSize=0;swimlaneHead=0;swimlaneBody=0;strokeColor=inherit;top=0;left=0;bottom=0;right=0;collapsible=0;dropTarget=0;fillColor=none;points=[[0,0.5],[1,0.5]];portConstraint=eastwest;fontSize=16;rounded=0;fontFamily=Helvetica;fontColor=default;html=1;" vertex="1" parent="4TGvPuajLl9bLqOAQWgt-77">
          <mxGeometry y="160" width="60" height="40" as="geometry" />
        </mxCell>
        <mxCell id="4TGvPuajLl9bLqOAQWgt-104" style="shape=partialRectangle;html=1;whiteSpace=wrap;connectable=0;strokeColor=inherit;overflow=hidden;fillColor=none;top=0;left=0;bottom=0;right=0;pointerEvents=1;fontSize=16;rounded=0;fontFamily=Helvetica;fontColor=default;" vertex="1" parent="4TGvPuajLl9bLqOAQWgt-103">
          <mxGeometry width="60" height="40" as="geometry">
            <mxRectangle width="60" height="40" as="alternateBounds" />
          </mxGeometry>
        </mxCell>
        <mxCell id="4TGvPuajLl9bLqOAQWgt-101" style="shape=tableRow;horizontal=0;startSize=0;swimlaneHead=0;swimlaneBody=0;strokeColor=inherit;top=0;left=0;bottom=0;right=0;collapsible=0;dropTarget=0;fillColor=none;points=[[0,0.5],[1,0.5]];portConstraint=eastwest;fontSize=16;rounded=0;fontFamily=Helvetica;fontColor=default;html=1;" vertex="1" parent="4TGvPuajLl9bLqOAQWgt-77">
          <mxGeometry y="200" width="60" height="40" as="geometry" />
        </mxCell>
        <mxCell id="4TGvPuajLl9bLqOAQWgt-102" style="shape=partialRectangle;html=1;whiteSpace=wrap;connectable=0;strokeColor=#006EAF;overflow=hidden;fillColor=#1ba1e2;top=0;left=0;bottom=0;right=0;pointerEvents=1;fontSize=16;rounded=0;fontFamily=Helvetica;fontColor=#ffffff;" vertex="1" parent="4TGvPuajLl9bLqOAQWgt-101">
          <mxGeometry width="60" height="40" as="geometry">
            <mxRectangle width="60" height="40" as="alternateBounds" />
          </mxGeometry>
        </mxCell>
        <mxCell id="4TGvPuajLl9bLqOAQWgt-96" style="shape=tableRow;horizontal=0;startSize=0;swimlaneHead=0;swimlaneBody=0;strokeColor=inherit;top=0;left=0;bottom=0;right=0;collapsible=0;dropTarget=0;fillColor=none;points=[[0,0.5],[1,0.5]];portConstraint=eastwest;fontSize=16;rounded=0;fontFamily=Helvetica;fontColor=default;html=1;" vertex="1" parent="4TGvPuajLl9bLqOAQWgt-77">
          <mxGeometry y="240" width="60" height="27" as="geometry" />
        </mxCell>
        <mxCell id="4TGvPuajLl9bLqOAQWgt-97" style="shape=partialRectangle;html=1;whiteSpace=wrap;connectable=0;strokeColor=inherit;overflow=hidden;fillColor=none;top=0;left=0;bottom=0;right=0;pointerEvents=1;fontSize=16;rounded=0;fontFamily=Helvetica;fontColor=default;" vertex="1" parent="4TGvPuajLl9bLqOAQWgt-96">
          <mxGeometry width="60" height="27" as="geometry">
            <mxRectangle width="60" height="27" as="alternateBounds" />
          </mxGeometry>
        </mxCell>
        <mxCell id="4TGvPuajLl9bLqOAQWgt-107" value="" style="shape=tableRow;horizontal=0;startSize=0;swimlaneHead=0;swimlaneBody=0;strokeColor=inherit;top=0;left=0;bottom=0;right=0;collapsible=0;dropTarget=0;fillColor=none;points=[[0,0.5],[1,0.5]];portConstraint=eastwest;fontSize=16;rounded=0;fontFamily=Helvetica;fontColor=default;html=1;" vertex="1" parent="4TGvPuajLl9bLqOAQWgt-77">
          <mxGeometry y="267" width="60" height="40" as="geometry" />
        </mxCell>
        <mxCell id="4TGvPuajLl9bLqOAQWgt-108" style="shape=partialRectangle;html=1;whiteSpace=wrap;connectable=0;strokeColor=#2D7600;overflow=hidden;fillColor=#60a917;top=0;left=0;bottom=0;right=0;pointerEvents=1;fontSize=16;rounded=0;fontFamily=Helvetica;fontColor=#ffffff;" vertex="1" parent="4TGvPuajLl9bLqOAQWgt-107">
          <mxGeometry width="60" height="40" as="geometry">
            <mxRectangle width="60" height="40" as="alternateBounds" />
          </mxGeometry>
        </mxCell>
        <mxCell id="4TGvPuajLl9bLqOAQWgt-82" value="" style="shape=tableRow;horizontal=0;startSize=0;swimlaneHead=0;swimlaneBody=0;strokeColor=inherit;top=0;left=0;bottom=0;right=0;collapsible=0;dropTarget=0;fillColor=none;points=[[0,0.5],[1,0.5]];portConstraint=eastwest;fontSize=16;rounded=0;fontFamily=Helvetica;fontColor=default;html=1;" vertex="1" parent="4TGvPuajLl9bLqOAQWgt-77">
          <mxGeometry y="307" width="60" height="40" as="geometry" />
        </mxCell>
        <mxCell id="4TGvPuajLl9bLqOAQWgt-91" style="shape=partialRectangle;html=1;whiteSpace=wrap;connectable=0;strokeColor=#2D7600;overflow=hidden;fillColor=#60a917;top=0;left=0;bottom=0;right=0;pointerEvents=1;fontSize=16;rounded=0;fontFamily=Helvetica;fontColor=#ffffff;" vertex="1" parent="4TGvPuajLl9bLqOAQWgt-82">
          <mxGeometry width="60" height="40" as="geometry">
            <mxRectangle width="60" height="40" as="alternateBounds" />
          </mxGeometry>
        </mxCell>
        <mxCell id="4TGvPuajLl9bLqOAQWgt-86" value="" style="shape=tableRow;horizontal=0;startSize=0;swimlaneHead=0;swimlaneBody=0;strokeColor=inherit;top=0;left=0;bottom=0;right=0;collapsible=0;dropTarget=0;fillColor=none;points=[[0,0.5],[1,0.5]];portConstraint=eastwest;fontSize=16;rounded=0;fontFamily=Helvetica;fontColor=default;html=1;" vertex="1" parent="4TGvPuajLl9bLqOAQWgt-77">
          <mxGeometry y="347" width="60" height="40" as="geometry" />
        </mxCell>
        <mxCell id="4TGvPuajLl9bLqOAQWgt-92" style="shape=partialRectangle;html=1;whiteSpace=wrap;connectable=0;strokeColor=#2D7600;overflow=hidden;fillColor=#60a917;top=0;left=0;bottom=0;right=0;pointerEvents=1;fontSize=16;rounded=0;fontFamily=Helvetica;fontColor=#ffffff;" vertex="1" parent="4TGvPuajLl9bLqOAQWgt-86">
          <mxGeometry width="60" height="40" as="geometry">
            <mxRectangle width="60" height="40" as="alternateBounds" />
          </mxGeometry>
        </mxCell>
        <mxCell id="4TGvPuajLl9bLqOAQWgt-109" value="" style="edgeStyle=none;orthogonalLoop=1;jettySize=auto;html=1;rounded=0;labelBackgroundColor=default;strokeColor=default;strokeWidth=1;fontFamily=Helvetica;fontSize=12;fontColor=default;endArrow=classicThin;endFill=1;sourcePerimeterSpacing=8;targetPerimeterSpacing=8;curved=1;dashed=1;" edge="1" parent="1">
          <mxGeometry width="140" relative="1" as="geometry">
            <mxPoint x="98" y="757" as="sourcePoint" />
            <mxPoint x="149" y="756.95" as="targetPoint" />
            <Array as="points" />
          </mxGeometry>
        </mxCell>
        <mxCell id="4TGvPuajLl9bLqOAQWgt-145" value="" style="edgeStyle=none;orthogonalLoop=1;jettySize=auto;html=1;rounded=0;labelBackgroundColor=default;strokeColor=default;strokeWidth=1;fontFamily=Helvetica;fontSize=12;fontColor=default;endArrow=classicThin;endFill=1;sourcePerimeterSpacing=8;targetPerimeterSpacing=8;curved=1;dashed=1;" edge="1" parent="1">
          <mxGeometry width="140" relative="1" as="geometry">
            <mxPoint x="102" y="610.05" as="sourcePoint" />
            <mxPoint x="153" y="610" as="targetPoint" />
            <Array as="points" />
          </mxGeometry>
        </mxCell>
        <mxCell id="4TGvPuajLl9bLqOAQWgt-146" value="" style="shape=curlyBracket;whiteSpace=wrap;html=1;rounded=1;flipH=1;labelPosition=right;verticalLabelPosition=middle;align=left;verticalAlign=middle;fontFamily=Helvetica;fontSize=12;fontColor=default;fillColor=none;gradientColor=none;" vertex="1" parent="1">
          <mxGeometry x="237" y="696" width="19" height="32" as="geometry" />
        </mxCell>
        <mxCell id="4TGvPuajLl9bLqOAQWgt-147" value="" style="shape=curlyBracket;whiteSpace=wrap;html=1;rounded=1;flipH=1;labelPosition=right;verticalLabelPosition=middle;align=left;verticalAlign=middle;fontFamily=Helvetica;fontSize=12;fontColor=default;fillColor=none;gradientColor=none;" vertex="1" parent="1">
          <mxGeometry x="239" y="614" width="19" height="32" as="geometry" />
        </mxCell>
        <mxCell id="4TGvPuajLl9bLqOAQWgt-148" value="" style="edgeStyle=none;orthogonalLoop=1;jettySize=auto;html=1;rounded=0;labelBackgroundColor=default;strokeColor=default;strokeWidth=1;fontFamily=Helvetica;fontSize=12;fontColor=default;endArrow=classicThin;endFill=1;sourcePerimeterSpacing=8;targetPerimeterSpacing=8;curved=1;dashed=1;" edge="1" parent="1">
          <mxGeometry width="140" relative="1" as="geometry">
            <mxPoint x="101" y="877" as="sourcePoint" />
            <mxPoint x="152" y="876.95" as="targetPoint" />
            <Array as="points" />
          </mxGeometry>
        </mxCell>
        <mxCell id="4TGvPuajLl9bLqOAQWgt-149" value="0" style="text;strokeColor=none;fillColor=none;html=1;align=center;verticalAlign=middle;whiteSpace=wrap;rounded=0;fontSize=12;fontFamily=Helvetica;fontColor=default;fontStyle=1" vertex="1" parent="1">
          <mxGeometry x="46" y="861" width="60" height="30" as="geometry" />
        </mxCell>
        <mxCell id="4TGvPuajLl9bLqOAQWgt-150" value="proc-&amp;gt;sz" style="text;strokeColor=none;fillColor=none;html=1;align=center;verticalAlign=middle;whiteSpace=wrap;rounded=0;fontSize=12;fontFamily=Helvetica;fontColor=default;fontStyle=1" vertex="1" parent="1">
          <mxGeometry x="36" y="742" width="60" height="30" as="geometry" />
        </mxCell>
        <mxCell id="4TGvPuajLl9bLqOAQWgt-151" value="KERNBASE" style="text;strokeColor=none;fillColor=none;html=1;align=center;verticalAlign=middle;whiteSpace=wrap;rounded=0;fontSize=12;fontFamily=Helvetica;fontColor=default;fontStyle=1" vertex="1" parent="1">
          <mxGeometry x="30" y="596" width="60" height="30" as="geometry" />
        </mxCell>
        <mxCell id="4TGvPuajLl9bLqOAQWgt-153" value="vma[4]" style="text;strokeColor=none;fillColor=none;html=1;align=center;verticalAlign=middle;whiteSpace=wrap;rounded=0;fontSize=12;fontFamily=Helvetica;fontColor=default;fontStyle=1" vertex="1" parent="1">
          <mxGeometry x="258" y="614" width="60" height="30" as="geometry" />
        </mxCell>
        <mxCell id="4TGvPuajLl9bLqOAQWgt-154" value="vma[1]" style="text;strokeColor=none;fillColor=none;html=1;align=center;verticalAlign=middle;whiteSpace=wrap;rounded=0;fontSize=12;fontFamily=Helvetica;fontColor=default;fontStyle=1" vertex="1" parent="1">
          <mxGeometry x="257" y="698" width="60" height="30" as="geometry" />
        </mxCell>
        <mxCell id="4TGvPuajLl9bLqOAQWgt-155" value="vma[0]" style="text;strokeColor=none;fillColor=none;html=1;align=center;verticalAlign=middle;whiteSpace=wrap;rounded=0;fontSize=12;fontFamily=Helvetica;fontColor=default;fontStyle=1" vertex="1" parent="1">
          <mxGeometry x="408" y="742" width="60" height="30" as="geometry" />
        </mxCell>
        <mxCell id="4TGvPuajLl9bLqOAQWgt-158" value="" style="edgeStyle=none;orthogonalLoop=1;jettySize=auto;html=1;rounded=0;labelBackgroundColor=default;strokeColor=default;strokeWidth=1;fontFamily=Helvetica;fontSize=12;fontColor=default;endArrow=classicThin;endFill=1;sourcePerimeterSpacing=8;targetPerimeterSpacing=8;curved=1;dashed=1;entryX=1;entryY=1;entryDx=0;entryDy=0;" edge="1" parent="1" target="4TGvPuajLl9bLqOAQWgt-154">
          <mxGeometry width="140" relative="1" as="geometry">
            <mxPoint x="401" y="751" as="sourcePoint" />
            <mxPoint x="159" y="766.95" as="targetPoint" />
            <Array as="points">
              <mxPoint x="355" y="749" />
            </Array>
          </mxGeometry>
        </mxCell>
        <mxCell id="4TGvPuajLl9bLqOAQWgt-159" value="" style="edgeStyle=none;orthogonalLoop=1;jettySize=auto;html=1;rounded=0;labelBackgroundColor=default;strokeColor=default;strokeWidth=1;fontFamily=Helvetica;fontSize=12;fontColor=default;endArrow=classicThin;endFill=1;sourcePerimeterSpacing=8;targetPerimeterSpacing=8;curved=1;dashed=1;entryX=1;entryY=0.75;entryDx=0;entryDy=0;" edge="1" parent="1" target="4TGvPuajLl9bLqOAQWgt-153">
          <mxGeometry width="140" relative="1" as="geometry">
            <mxPoint x="312" y="682" as="sourcePoint" />
            <mxPoint x="307" y="655" as="targetPoint" />
            <Array as="points">
              <mxPoint x="362" y="666" />
            </Array>
          </mxGeometry>
        </mxCell>
      </root>
    </mxGraphModel>
  </diagram>
</mxfile>
